<svg id="Capa_1" enable-background="new 0 0 512.028 512.028" height="512" viewBox="0 0 512.028 512.028" width="512" xmlns="http://www.w3.org/2000/svg"><g id="XMLID_1198_"><path id="XMLID_1197_" d="m490.729 21.198c-14.931-14.931-39.14-14.931-54.071 0l-43.752 43.752v18.742l35.33 35.33h18.742l43.752-43.752c14.93-14.932 14.93-39.14-.001-54.072z" fill="#ffcd69"/><path id="XMLID_1196_" d="m299.516 356.125c25.742-18.693 42.496-49.011 42.496-83.258 0-56.802-46.047-102.85-102.85-102.85-34.247 0-64.565 16.754-83.258 42.496-37.419-.289-74.929 13.833-103.479 42.383-56.529 56.529-56.529 148.18 0 204.708 56.529 56.529 148.179 56.528 204.708 0 28.55-28.551 42.672-66.061 42.383-103.479z" fill="#ffcd69"/><ellipse id="XMLID_1034_" cx="180.604" cy="331.514" fill="#8aa8bd" rx="46.696" ry="46.696" transform="matrix(.707 -.707 .707 .707 -181.518 224.805)"/><g id="XMLID_948_"><path id="XMLID_1033_" d="m167.28 176.642h285.032v50.979h-285.032z" fill="#d1a184" transform="matrix(.707 -.707 .707 .707 -52.191 278.262)"/></g><g id="XMLID_326_"><path id="XMLID_327_" d="m87.005 374.732c-3.905 3.905-3.905 10.237 0 14.143l36.047 36.047c1.953 1.953 4.512 2.929 7.071 2.929s5.119-.976 7.071-2.929c3.905-3.905 3.905-10.237 0-14.143l-36.047-36.047c-3.905-3.904-10.237-3.904-14.142 0z"/><path id="XMLID_349_" d="m501.802 77.791c6.558-8.421 10.126-18.712 10.126-29.556 0-12.884-5.018-24.997-14.127-34.107-9.111-9.11-21.224-14.128-34.108-14.128-10.845 0-21.135 3.567-29.556 10.126l-5.549-5.549c-3.905-3.905-10.237-3.905-14.143 0-3.905 3.905-3.905 10.237 0 14.143l5.275 5.275-14.142 14.142-5.274-5.274c-3.906-3.906-10.237-3.905-14.142 0s-3.906 10.237 0 14.142l5.275 5.275-5.601 5.601c-1.876 1.876-2.929 4.419-2.929 7.071v13.882l-93.146 93.146c-15.631-7.843-32.967-11.962-50.598-11.962-34.29 0-66.901 15.811-88.24 42.538-39.899.96-77.221 16.923-105.568 45.271-60.337 60.337-60.337 158.513 0 218.85 23.617 23.616 53.511 38.7 86.451 43.62 7.757 1.159 15.514 1.734 23.229 1.734 24.394-.001 48.342-5.753 70.304-17.006 4.915-2.519 6.858-8.545 4.339-13.46-2.518-4.915-8.544-6.858-13.459-4.34-52.216 26.757-115.198 16.834-156.722-24.689-52.539-52.539-52.539-138.027 0-190.566 25.472-25.471 59.262-39.458 95.256-39.458.357 0 .717.001 1.075.004 3.188.032 6.271-1.511 8.169-4.124 17.448-24.027 45.547-38.372 75.167-38.372 12.247 0 24.316 2.419 35.511 7.048l-88.075 88.07c-1.971-.208-3.971-.32-5.996-.32-31.262 0-56.696 25.434-56.696 56.696s25.434 56.696 56.696 56.696 56.696-25.434 56.696-56.696c0-2.142-.13-4.253-.363-6.334l87.967-87.967c4.668 11.235 7.107 23.353 7.107 35.654 0 29.619-14.345 57.719-38.372 75.167-2.613 1.897-4.148 4.94-4.124 8.169.167 21.695-4.941 43.304-14.77 62.491-2.518 4.915-.575 10.941 4.34 13.459 1.46.748 3.017 1.102 4.551 1.102 3.633 0 7.138-1.987 8.908-5.442 10.528-20.551 16.341-43.508 16.925-66.703 26.729-21.339 42.54-53.95 42.54-88.243 0-17.684-4.142-35.066-12.029-50.732l93.112-93.112h13.882c2.652 0 5.196-1.054 7.071-2.929l5.601-5.601 5.274 5.274c1.953 1.953 4.512 2.929 7.071 2.929s5.119-.976 7.071-2.929c3.905-3.905 3.905-10.237 0-14.143l-5.274-5.274 14.142-14.142 5.275 5.275c1.953 1.953 4.512 2.929 7.071 2.929s5.119-.976 7.071-2.929c3.905-3.905 3.905-10.237 0-14.143zm-114.204 68.444-21.905-21.906 26.854-26.854 21.905 21.905zm-39.852 39.852-21.905-21.905 25.71-25.71 21.905 21.906zm-39.852 39.852-21.905-21.905 25.709-25.709 21.905 21.905zm-39.852 39.851-21.905-21.905 25.709-25.709 21.905 21.905zm-87.438 102.42c-20.234 0-36.696-16.462-36.696-36.696s16.461-36.696 36.696-36.696c20.234 0 36.696 16.461 36.696 36.696 0 20.234-16.461 36.696-36.696 36.696zm27.476-86.267 23.915-23.915 21.905 21.905-23.864 23.864c-5.155-9.156-12.773-16.743-21.956-21.854zm234.755-172.921h-10.457l-29.472-29.472v-10.457l40.824-40.823c5.332-5.333 12.422-8.27 19.964-8.27s14.632 2.937 19.964 8.27c5.333 5.333 8.27 12.422 8.27 19.964s-2.937 14.631-8.27 19.964z"/><path id="XMLID_408_" d="m257.128 449.6c-2.63 0-5.21 1.07-7.07 2.93s-2.93 4.44-2.93 7.07 1.07 5.21 2.93 7.08c1.87 1.86 4.44 2.92 7.07 2.92 2.64 0 5.21-1.06 7.08-2.92 1.86-1.87 2.92-4.44 2.92-7.08 0-2.63-1.06-5.21-2.92-7.07-1.87-1.86-4.44-2.93-7.08-2.93z"/></g></g></svg>