<svg width="318" height="131" viewBox="0 0 318 131" fill="none" xmlns="http://www.w3.org/2000/svg">
<path d="M65.3867 77V25.6016H68.9727V73.625H93.4766V77H65.3867ZM102.371 77V25.6016H105.957V73.625H130.461V77H102.371ZM167.445 77H139.355V25.6016H167.445V28.9062H142.941V48.3477H166.074V51.6523H142.941V73.6953H167.445V77ZM199.297 51.0898H218.246V74.5391C213.277 76.6484 207.688 77.7031 201.477 77.7031C193.367 77.7031 187.145 75.418 182.809 70.8477C178.496 66.2539 176.34 59.7617 176.34 51.3711C176.34 46.1445 177.406 41.5156 179.539 37.4844C181.695 33.4297 184.766 30.3008 188.75 28.0977C192.758 25.8945 197.352 24.793 202.531 24.793C208.133 24.793 213.16 25.8242 217.613 27.8867L216.172 31.1211C211.719 29.0586 207.102 28.0273 202.32 28.0273C195.547 28.0273 190.168 30.125 186.184 34.3203C182.223 38.4922 180.242 44.1289 180.242 51.2305C180.242 58.9648 182.129 64.7891 185.902 68.7031C189.676 72.5938 195.219 74.5391 202.531 74.5391C207.266 74.5391 211.285 73.8711 214.59 72.5352V54.4648H199.297V51.0898ZM234.77 54.6055V77H231.184V25.6016H243.418C249.793 25.6016 254.504 26.7852 257.551 29.1523C260.598 31.4961 262.121 35.0352 262.121 39.7695C262.121 43.2148 261.207 46.1211 259.379 48.4883C257.574 50.8555 254.82 52.5547 251.117 53.5859L265.074 77H260.785L247.531 54.6055H234.77ZM234.77 51.5117H244.578C248.914 51.5117 252.277 50.5508 254.668 48.6289C257.059 46.6836 258.254 43.8242 258.254 40.0508C258.254 36.1367 257.082 33.2891 254.738 31.5078C252.395 29.7266 248.574 28.8359 243.277 28.8359H234.77V51.5117ZM317.211 51.2305C317.211 59.3867 315.172 65.8438 311.094 70.6016C307.016 75.3359 301.391 77.7031 294.219 77.7031C287.07 77.7031 281.457 75.3359 277.379 70.6016C273.301 65.8438 271.262 59.3633 271.262 51.1602C271.262 42.9805 273.312 36.5469 277.414 31.8594C281.539 27.1484 287.164 24.793 294.289 24.793C301.461 24.793 307.074 27.1602 311.129 31.8945C315.184 36.6055 317.211 43.0508 317.211 51.2305ZM275.164 51.2305C275.164 58.5898 276.805 64.2852 280.086 68.3164C283.367 72.3242 288.078 74.3281 294.219 74.3281C300.406 74.3281 305.129 72.3359 308.387 68.3516C311.668 64.3672 313.309 58.6602 313.309 51.2305C313.309 43.8242 311.668 38.1523 308.387 34.2148C305.129 30.2539 300.43 28.2734 294.289 28.2734C288.172 28.2734 283.449 30.2656 280.121 34.25C276.816 38.2344 275.164 43.8945 275.164 51.2305Z" fill="black"/>
<path d="M71.1875 110H69.5781V88.6562H62.1562V87.1562H78.6094V88.6562H71.1875V110ZM91.9219 100.047V110H90.3281V87.1562H95.7656C98.599 87.1562 100.693 87.6823 102.047 88.7344C103.401 89.776 104.078 91.349 104.078 93.4531C104.078 94.9844 103.672 96.276 102.859 97.3281C102.057 98.3802 100.833 99.1354 99.1875 99.5938L105.391 110H103.484L97.5938 100.047H91.9219ZM91.9219 98.6719H96.2812C98.2083 98.6719 99.7031 98.2448 100.766 97.3906C101.828 96.526 102.359 95.2552 102.359 93.5781C102.359 91.8385 101.839 90.5729 100.797 89.7812C99.7552 88.9896 98.0573 88.5938 95.7031 88.5938H91.9219V98.6719ZM128.672 101.938H119.391L116.203 110H114.438L123.625 87.0625H124.641L133.641 110H131.844L128.672 101.938ZM119.969 100.5H128.141L125.031 92.2656C124.771 91.6198 124.458 90.724 124.094 89.5781C123.812 90.5781 123.505 91.4844 123.172 92.2969L119.969 100.5ZM145.203 110V87.1562H146.797V110H145.203ZM178.188 110H176.578L163.047 89.7188H162.922C163.047 92.1354 163.109 93.9583 163.109 95.1875V110H161.578V87.1562H163.172L176.688 107.406H176.781C176.688 105.531 176.641 103.75 176.641 102.062V87.1562H178.188V110ZM192.984 110V87.1562H194.578V110H192.984ZM225.969 110H224.359L210.828 89.7188H210.703C210.828 92.1354 210.891 93.9583 210.891 95.1875V110H209.359V87.1562H210.953L224.469 107.406H224.562C224.469 105.531 224.422 103.75 224.422 102.062V87.1562H225.969V110ZM249.75 98.4844H258.172V108.906C255.964 109.844 253.479 110.312 250.719 110.312C247.115 110.312 244.349 109.297 242.422 107.266C240.505 105.224 239.547 102.339 239.547 98.6094C239.547 96.2865 240.021 94.2292 240.969 92.4375C241.927 90.6354 243.292 89.2448 245.062 88.2656C246.844 87.2865 248.885 86.7969 251.188 86.7969C253.677 86.7969 255.911 87.2552 257.891 88.1719L257.25 89.6094C255.271 88.6927 253.219 88.2344 251.094 88.2344C248.083 88.2344 245.693 89.1667 243.922 91.0312C242.161 92.8854 241.281 95.3906 241.281 98.5469C241.281 101.984 242.12 104.573 243.797 106.312C245.474 108.042 247.938 108.906 251.188 108.906C253.292 108.906 255.078 108.609 256.547 108.016V99.9844H249.75V98.4844Z" fill="black"/>
<path d="M57.4477 22.5044C57.3682 22.0896 57.1094 21.7311 56.7405 21.5257L54.4461 20.2475L55.5257 18.3089C55.9091 17.6204 55.6619 16.7515 54.9735 16.3684C54.2846 15.985 53.4161 16.2324 53.033 16.9205L51.9533 18.8591L49.6589 17.5813C49.29 17.3758 48.8487 17.3445 48.4547 17.4953C48.0601 17.6461 47.7532 17.9641 47.6156 18.3634L44.8016 26.5384C44.5768 27.1921 44.8526 27.9128 45.4565 28.2493L46.4228 28.7878L41.7115 37.2466L37.6238 16.4874C37.2388 14.5319 35.3759 13 33.3825 13H21.9579C19.9649 13 18.102 14.5319 17.7166 16.4874L9.39658 58.7427C9.39617 58.7451 9.39576 58.7474 9.39536 58.7498L6.59709 72.9613C6.39367 73.994 6.63887 75.0264 7.2697 75.7934C7.90012 76.5602 8.86542 77 9.91795 77H45.4227C46.475 77 47.4401 76.5602 48.0709 75.7934C48.7018 75.0264 48.947 73.9942 48.7437 72.9611L45.9449 58.7463C45.9447 58.7459 45.9447 58.7455 45.9447 58.7455L42.5645 41.5787L48.9156 30.1761L49.8821 30.7145C50.1006 30.8364 50.3393 30.8949 50.5755 30.8949C50.9925 30.8949 51.4022 30.7123 51.6812 30.3709L57.151 23.6748C57.4182 23.3478 57.5268 22.919 57.4477 22.5044ZM20.5165 17.0389C20.6388 16.4185 21.3259 15.8535 21.9579 15.8535H33.3825C34.015 15.8535 34.7019 16.4183 34.8239 17.0387L39.5626 41.1037L33.4267 52.1201C32.1692 51.581 30.7524 51.177 29.0972 51.027V47.986H31.3311C32.119 47.986 32.7578 47.3472 32.7578 46.5592C32.7578 45.7713 32.119 45.1325 31.3311 45.1325H29.0972V36.7328H31.3311C32.119 36.7328 32.7578 36.094 32.7578 35.306C32.7578 34.5181 32.119 33.8793 31.3311 33.8793H29.0972V25.4798H31.3311C32.119 25.4798 32.7578 24.841 32.7578 24.053C32.7578 23.2651 32.119 22.6263 31.3311 22.6263H29.0972V20.1211C29.0972 19.3331 28.4584 18.6944 27.6704 18.6944C26.8824 18.6944 26.2437 19.3331 26.2437 20.1211V22.6263H24.0098C23.2218 22.6263 22.583 23.2651 22.583 24.053C22.583 24.841 23.2218 25.4798 24.0098 25.4798H26.2437V33.8793H24.0098C23.2218 33.8793 22.583 34.5181 22.583 35.306C22.583 36.094 23.2218 36.7328 24.0098 36.7328H26.2437V45.1325H24.0098C23.2218 45.1325 22.583 45.7713 22.583 46.5592C22.583 47.3472 23.2218 47.986 24.0098 47.986H26.2437V51.027C22.2799 51.3863 19.6828 53.2055 17.3644 54.8315C15.7554 55.9599 14.3121 56.9702 12.5705 57.3942L20.5165 17.0389ZM45.8672 73.981C45.7792 74.0876 45.6214 74.1467 45.4227 74.1467H9.91795C9.71902 74.1467 9.56127 74.0878 9.47342 73.9808C9.38537 73.874 9.35826 73.7077 9.39658 73.5126L11.98 60.3922C14.8635 60.0675 16.9645 58.5971 19.0027 57.1677C21.4606 55.444 23.7819 53.8161 27.6702 53.8161C31.5585 53.8161 33.8798 55.444 36.3375 57.1677C38.3759 58.5974 40.4767 60.0677 43.3604 60.3922L45.9438 73.5124C45.9826 73.7075 45.9553 73.8738 45.8672 73.981ZM42.7703 57.3942C41.0287 56.9702 39.5852 55.9599 37.9762 54.8313C37.3291 54.3774 36.6604 53.9086 35.9464 53.4604L40.4158 45.4366L42.7703 57.3942ZM50.2272 27.6403L47.8885 26.3375L49.759 20.9032L53.8631 23.1892L50.2272 27.6403Z" fill="black"/>
<path d="M58 98.3215C48.5386 95.2427 38.4636 102.161 33.5 103C26.9636 105.161 17.8036 103.143 15.9018 98.3215C14 93.5 15.7586 88.3536 21.5 85C29 81 34.5 88 29.9196 92.6558" stroke="#82ECF7" stroke-width="2"/>
<path d="M265 98.5098C274.461 95.431 284.536 102.349 289.5 103.188C296.036 105.349 305.196 103.331 307.098 98.5098C309 93.6884 307.241 88.542 301.5 85.1884C294 81.1884 288.5 88.1884 293.08 92.8441" stroke="#82ECF7" stroke-width="2"/>
</svg>
