<svg width="254" height="52" viewBox="0 0 254 52" fill="none" xmlns="http://www.w3.org/2000/svg">
<path d="M75.4 0.599997L58.408 51H52.792L38.032 8.016L23.2 51H17.656L0.664 0.599997H6.136L20.68 43.944L35.728 0.599997H40.696L55.528 44.16L70.288 0.599997H75.4ZM85.1689 0.599997H90.4969V51H85.1689V0.599997ZM149.016 0.599997V51H144.624L112.224 10.104V51H106.896V0.599997H111.288L143.76 41.496V0.599997H149.016ZM200.962 25.8H206.074V45.024C203.722 47.088 200.938 48.672 197.722 49.776C194.506 50.88 191.122 51.432 187.57 51.432C182.53 51.432 177.994 50.328 173.962 48.12C169.93 45.912 166.762 42.864 164.458 38.976C162.154 35.04 161.002 30.648 161.002 25.8C161.002 20.952 162.154 16.584 164.458 12.696C166.762 8.76 169.93 5.688 173.962 3.48C177.994 1.272 182.554 0.167998 187.642 0.167998C191.482 0.167998 195.01 0.791998 198.226 2.04C201.442 3.24 204.154 5.04 206.362 7.44L203.05 10.824C199.066 6.888 194.002 4.92 187.858 4.92C183.778 4.92 180.082 5.832 176.77 7.656C173.506 9.432 170.938 11.928 169.066 15.144C167.194 18.312 166.258 21.864 166.258 25.8C166.258 29.736 167.194 33.288 169.066 36.456C170.938 39.624 173.506 42.12 176.77 43.944C180.034 45.768 183.706 46.68 187.786 46.68C192.97 46.68 197.362 45.384 200.962 42.792V25.8ZM235.049 51.432C231.305 51.432 227.705 50.832 224.249 49.632C220.841 48.432 218.201 46.848 216.329 44.88L218.417 40.776C220.241 42.6 222.665 44.088 225.689 45.24C228.713 46.344 231.833 46.896 235.049 46.896C239.561 46.896 242.945 46.08 245.201 44.448C247.457 42.768 248.585 40.608 248.585 37.968C248.585 35.952 247.961 34.344 246.713 33.144C245.513 31.944 244.025 31.032 242.249 30.408C240.473 29.736 238.001 29.016 234.833 28.248C231.041 27.288 228.017 26.376 225.761 25.512C223.505 24.6 221.561 23.232 219.929 21.408C218.345 19.584 217.553 17.112 217.553 13.992C217.553 11.448 218.225 9.144 219.569 7.08C220.913 4.968 222.977 3.288 225.761 2.04C228.545 0.791998 232.001 0.167998 236.129 0.167998C239.009 0.167998 241.817 0.575998 244.553 1.392C247.337 2.16 249.737 3.24 251.753 4.632L249.953 8.88C247.841 7.488 245.585 6.456 243.185 5.784C240.785 5.064 238.433 4.704 236.129 4.704C231.713 4.704 228.377 5.568 226.121 7.296C223.913 8.976 222.809 11.16 222.809 13.848C222.809 15.864 223.409 17.496 224.609 18.744C225.857 19.944 227.393 20.88 229.217 21.552C231.089 22.176 233.585 22.872 236.705 23.64C240.401 24.552 243.377 25.464 245.633 26.376C247.937 27.24 249.881 28.584 251.465 30.408C253.049 32.184 253.841 34.608 253.841 37.68C253.841 40.224 253.145 42.552 251.753 44.664C250.409 46.728 248.321 48.384 245.489 49.632C242.657 50.832 239.177 51.432 235.049 51.432Z" fill="url(#paint0_linear)"/>
<defs>
<linearGradient id="paint0_linear" x1="2.97608" y1="25" x2="258" y2="25" gradientUnits="userSpaceOnUse">
<stop stop-color="#255090"/>
<stop offset="1" stop-color="#FFD2D1"/>
</linearGradient>
</defs>
</svg>
